<?xml version="1.0" encoding="iso-8859-1"?>
<!-- Generator: Adobe Illustrator 19.0.0, SVG Export Plug-In . SVG Version: 6.00 Build 0)  -->
<svg version="1.1" id="Capa_1" xmlns="http://www.w3.org/2000/svg" xmlns:xlink="http://www.w3.org/1999/xlink" x="0px" y="0px"
	 viewBox="0 0 512 512" style="enable-background:new 0 0 512 512;" xml:space="preserve">
<g>
	<g>
		<path d="M447.512,85.728l64.487-64.487L490.759,0l-64.487,64.487l-24.312-24.312l-46.81,46.81L329.86,61.697L85.853,305.704
			l-22.4-22.4l-21.24,21.239l22.4,22.4l21.103,21.103l-53.992,53.993l-10.484-10.484l-21.24,21.241L99.204,512l21.24-21.24
			l-10.484-10.484l53.992-53.992l21.103,21.103l22.4,22.4l21.24-21.24l-22.4-22.4L450.303,182.14l-25.289-25.289l46.81-46.81
			L447.512,85.728z M88.721,459.036l-35.756-35.756l53.992-53.993l35.756,35.756L88.721,459.036z M185.056,404.906l-77.963-77.963
			l39.761-39.761l42.567,42.567l21.24-21.24l-42.567-42.567l39.761-39.761l42.567,42.567l21.24-21.24l-42.567-42.567l39.761-39.761
			l42.567,42.567l21.24-21.24l-42.567-42.567l39.761-39.761l77.963,77.963L185.056,404.906z M403.775,135.611l-27.385-27.385
			l25.57-25.57l27.386,27.385L403.775,135.611z"/>
	</g>
</g>
<g>
</g>
<g>
</g>
<g>
</g>
<g>
</g>
<g>
</g>
<g>
</g>
<g>
</g>
<g>
</g>
<g>
</g>
<g>
</g>
<g>
</g>
<g>
</g>
<g>
</g>
<g>
</g>
<g>
</g>
</svg>
